<mxfile host="65bd71144e">
    <diagram id="fORaWl52CCvgcYG56sxR" name="Page-1">
        <mxGraphModel dx="1593" dy="1267" grid="0" gridSize="10" guides="1" tooltips="1" connect="1" arrows="1" fold="1" page="0" pageScale="1" pageWidth="850" pageHeight="1100" background="#CCCCCC" math="0" shadow="0">
            <root>
                <mxCell id="0"/>
                <mxCell id="1" parent="0"/>
                <mxCell id="29" style="edgeStyle=none;html=1;exitX=1;exitY=0.25;exitDx=0;exitDy=0;entryX=0;entryY=1;entryDx=0;entryDy=0;fillColor=#f0a30a;strokeColor=#BD7000;strokeWidth=3;comic=0;sketch=1;fontSize=14;fontColor=#000000;" edge="1" parent="1" source="2" target="5">
                    <mxGeometry relative="1" as="geometry"/>
                </mxCell>
                <mxCell id="30" style="edgeStyle=none;html=1;exitX=1;exitY=0;exitDx=0;exitDy=0;entryX=0.1;entryY=0.813;entryDx=0;entryDy=0;entryPerimeter=0;fillColor=#f0a30a;strokeColor=#BD7000;strokeWidth=3;comic=0;sketch=1;fontSize=14;fontColor=#000000;" edge="1" parent="1" source="2" target="21">
                    <mxGeometry relative="1" as="geometry"/>
                </mxCell>
                <mxCell id="31" style="edgeStyle=none;html=1;exitX=0.75;exitY=0;exitDx=0;exitDy=0;entryX=0.367;entryY=0.988;entryDx=0;entryDy=0;entryPerimeter=0;fillColor=#f0a30a;strokeColor=#BD7000;strokeWidth=3;comic=0;sketch=1;fontSize=14;fontColor=#000000;" edge="1" parent="1" source="2" target="4">
                    <mxGeometry relative="1" as="geometry"/>
                </mxCell>
                <mxCell id="32" style="edgeStyle=none;html=1;exitX=0.5;exitY=0;exitDx=0;exitDy=0;entryX=0.5;entryY=1;entryDx=0;entryDy=0;fillColor=#f0a30a;strokeColor=#BD7000;strokeWidth=3;comic=0;sketch=1;fontSize=14;fontColor=#000000;" edge="1" parent="1" source="2" target="26">
                    <mxGeometry relative="1" as="geometry"/>
                </mxCell>
                <mxCell id="33" style="edgeStyle=none;html=1;exitX=0.25;exitY=0;exitDx=0;exitDy=0;entryX=0.767;entryY=0.95;entryDx=0;entryDy=0;entryPerimeter=0;fillColor=#f0a30a;strokeColor=#BD7000;strokeWidth=3;comic=0;sketch=1;fontSize=14;fontColor=#000000;" edge="1" parent="1" source="2" target="7">
                    <mxGeometry relative="1" as="geometry"/>
                </mxCell>
                <mxCell id="34" style="edgeStyle=none;html=1;exitX=0;exitY=0;exitDx=0;exitDy=0;fillColor=#f0a30a;strokeColor=#BD7000;strokeWidth=3;comic=0;sketch=1;fontSize=14;fontColor=#000000;" edge="1" parent="1" source="2" target="20">
                    <mxGeometry relative="1" as="geometry"/>
                </mxCell>
                <mxCell id="35" style="edgeStyle=none;html=1;exitX=0;exitY=0.25;exitDx=0;exitDy=0;entryX=1;entryY=0.5;entryDx=0;entryDy=0;fillColor=#f0a30a;strokeColor=#BD7000;strokeWidth=3;comic=0;sketch=1;fontSize=14;fontColor=#000000;" edge="1" parent="1" source="2" target="14">
                    <mxGeometry relative="1" as="geometry"/>
                </mxCell>
                <mxCell id="36" style="edgeStyle=none;html=1;exitX=0;exitY=0.75;exitDx=0;exitDy=0;fillColor=#f0a30a;strokeColor=#BD7000;strokeWidth=3;comic=0;sketch=1;fontSize=14;fontColor=#000000;" edge="1" parent="1" source="2" target="11">
                    <mxGeometry relative="1" as="geometry"/>
                </mxCell>
                <mxCell id="37" style="edgeStyle=none;html=1;exitX=0.25;exitY=1;exitDx=0;exitDy=0;entryX=1;entryY=0;entryDx=0;entryDy=0;fillColor=#f0a30a;strokeColor=#BD7000;strokeWidth=3;comic=0;sketch=1;fontSize=14;fontColor=#000000;" edge="1" parent="1" source="2" target="9">
                    <mxGeometry relative="1" as="geometry"/>
                </mxCell>
                <mxCell id="38" style="edgeStyle=none;html=1;exitX=0.75;exitY=1;exitDx=0;exitDy=0;entryX=0;entryY=0;entryDx=0;entryDy=0;fillColor=#f0a30a;strokeColor=#BD7000;strokeWidth=3;comic=0;sketch=1;fontSize=14;fontColor=#000000;" edge="1" parent="1" source="2" target="16">
                    <mxGeometry relative="1" as="geometry"/>
                </mxCell>
                <mxCell id="39" style="edgeStyle=none;html=1;exitX=1;exitY=0.75;exitDx=0;exitDy=0;fillColor=#f0a30a;strokeColor=#BD7000;strokeWidth=3;comic=0;sketch=1;fontSize=14;fontColor=#000000;" edge="1" parent="1" source="2" target="13">
                    <mxGeometry relative="1" as="geometry"/>
                </mxCell>
                <mxCell id="2" value="Arch" style="rounded=1;whiteSpace=wrap;html=1;fillColor=#f0a30a;strokeColor=#BD7000;strokeWidth=3;comic=0;sketch=1;fontSize=14;fontColor=#000000;" vertex="1" parent="1">
                    <mxGeometry x="310" y="60" width="120" height="60" as="geometry"/>
                </mxCell>
                <mxCell id="46" style="edgeStyle=none;html=1;exitX=0.75;exitY=1;exitDx=0;exitDy=0;fillColor=#f0a30a;strokeColor=#BD7000;strokeWidth=3;comic=0;sketch=1;fontSize=14;fontColor=#000000;" edge="1" parent="1" source="3" target="25">
                    <mxGeometry relative="1" as="geometry"/>
                </mxCell>
                <mxCell id="47" style="edgeStyle=none;html=1;exitX=0.25;exitY=1;exitDx=0;exitDy=0;fillColor=#f0a30a;strokeColor=#BD7000;strokeWidth=3;comic=0;sketch=1;fontSize=14;fontColor=#000000;" edge="1" parent="1" source="3" target="24">
                    <mxGeometry relative="1" as="geometry"/>
                </mxCell>
                <mxCell id="48" style="edgeStyle=none;html=1;exitX=0;exitY=0;exitDx=0;exitDy=0;fillColor=#f0a30a;strokeColor=#BD7000;strokeWidth=3;comic=0;sketch=1;fontSize=14;fontColor=#000000;" edge="1" parent="1" source="3" target="23">
                    <mxGeometry relative="1" as="geometry"/>
                </mxCell>
                <mxCell id="3" value="Map" style="rounded=1;whiteSpace=wrap;html=1;fillColor=#f0a30a;strokeColor=#BD7000;strokeWidth=3;comic=0;sketch=1;fontSize=14;fontColor=#000000;" vertex="1" parent="1">
                    <mxGeometry x="136" y="354" width="120" height="60" as="geometry"/>
                </mxCell>
                <mxCell id="4" value="Name" style="ellipse;whiteSpace=wrap;html=1;fillColor=#f0a30a;strokeColor=#BD7000;strokeWidth=3;comic=0;sketch=1;fontSize=14;fontColor=#000000;" vertex="1" parent="1">
                    <mxGeometry x="370" y="-92" width="120" height="80" as="geometry"/>
                </mxCell>
                <mxCell id="5" value="Size, GAD" style="ellipse;whiteSpace=wrap;html=1;fillColor=#f0a30a;strokeColor=#BD7000;strokeWidth=3;comic=0;sketch=1;fontSize=14;fontColor=#000000;" vertex="1" parent="1">
                    <mxGeometry x="512" y="-37" width="120" height="80" as="geometry"/>
                </mxCell>
                <mxCell id="7" value="Rating" style="ellipse;whiteSpace=wrap;html=1;fillColor=#f0a30a;strokeColor=#BD7000;strokeWidth=3;comic=0;sketch=1;fontSize=14;fontColor=#000000;" vertex="1" parent="1">
                    <mxGeometry x="205" y="-81" width="120" height="80" as="geometry"/>
                </mxCell>
                <mxCell id="45" style="edgeStyle=none;html=1;exitX=0;exitY=1;exitDx=0;exitDy=0;entryX=0.75;entryY=0;entryDx=0;entryDy=0;fillColor=#f0a30a;strokeColor=#BD7000;strokeWidth=3;comic=0;sketch=1;fontSize=14;fontColor=#000000;" edge="1" parent="1" source="9" target="3">
                    <mxGeometry relative="1" as="geometry"/>
                </mxCell>
                <mxCell id="9" value="located on" style="rhombus;whiteSpace=wrap;html=1;fillColor=#f0a30a;strokeColor=#BD7000;strokeWidth=3;comic=0;sketch=1;fontSize=14;fontColor=#000000;" vertex="1" parent="1">
                    <mxGeometry x="260" y="197" width="80" height="80" as="geometry"/>
                </mxCell>
                <mxCell id="49" style="edgeStyle=none;html=1;exitX=1;exitY=1;exitDx=0;exitDy=0;fillColor=#f0a30a;strokeColor=#BD7000;strokeWidth=3;comic=0;sketch=1;fontSize=14;fontColor=#000000;" edge="1" parent="1" source="10" target="23">
                    <mxGeometry relative="1" as="geometry"/>
                </mxCell>
                <mxCell id="50" style="edgeStyle=none;html=1;exitX=1;exitY=0.25;exitDx=0;exitDy=0;fillColor=#f0a30a;strokeColor=#BD7000;strokeWidth=3;comic=0;sketch=1;fontSize=14;fontColor=#000000;" edge="1" parent="1" source="10" target="11">
                    <mxGeometry relative="1" as="geometry"/>
                </mxCell>
                <mxCell id="51" style="edgeStyle=none;html=1;exitX=0;exitY=1;exitDx=0;exitDy=0;entryX=1;entryY=0;entryDx=0;entryDy=0;fillColor=#f0a30a;strokeColor=#BD7000;strokeWidth=3;comic=0;sketch=1;fontSize=14;fontColor=#000000;" edge="1" parent="1" source="10" target="22">
                    <mxGeometry relative="1" as="geometry"/>
                </mxCell>
                <mxCell id="10" value="Trail" style="rounded=1;whiteSpace=wrap;html=1;fillColor=#f0a30a;strokeColor=#BD7000;strokeWidth=3;comic=0;sketch=1;fontSize=14;fontColor=#000000;" vertex="1" parent="1">
                    <mxGeometry x="-81" y="194" width="120" height="60" as="geometry"/>
                </mxCell>
                <mxCell id="11" value="accessed via" style="rhombus;whiteSpace=wrap;html=1;fillColor=#f0a30a;strokeColor=#BD7000;strokeWidth=3;comic=0;sketch=1;fontSize=14;fontColor=#000000;" vertex="1" parent="1">
                    <mxGeometry x="117" y="124" width="80" height="80" as="geometry"/>
                </mxCell>
                <mxCell id="52" style="edgeStyle=none;html=1;exitX=0.75;exitY=0;exitDx=0;exitDy=0;fillColor=#f0a30a;strokeColor=#BD7000;strokeWidth=3;comic=0;sketch=1;fontSize=14;fontColor=#000000;" edge="1" parent="1" source="12" target="19">
                    <mxGeometry relative="1" as="geometry"/>
                </mxCell>
                <mxCell id="53" style="edgeStyle=none;html=1;exitX=1;exitY=0.5;exitDx=0;exitDy=0;fillColor=#f0a30a;strokeColor=#BD7000;strokeWidth=3;comic=0;sketch=1;fontSize=14;fontColor=#000000;" edge="1" parent="1" source="12" target="18">
                    <mxGeometry relative="1" as="geometry"/>
                </mxCell>
                <mxCell id="12" value="Background Info" style="rounded=1;whiteSpace=wrap;html=1;fillColor=#f0a30a;strokeColor=#BD7000;strokeWidth=3;comic=0;sketch=1;fontSize=14;fontColor=#000000;" vertex="1" parent="1">
                    <mxGeometry x="710" y="106" width="120" height="60" as="geometry"/>
                </mxCell>
                <mxCell id="40" style="edgeStyle=none;html=1;exitX=1;exitY=0.5;exitDx=0;exitDy=0;entryX=0;entryY=0.5;entryDx=0;entryDy=0;fillColor=#f0a30a;strokeColor=#BD7000;strokeWidth=3;comic=0;sketch=1;fontSize=14;fontColor=#000000;" edge="1" parent="1" source="13" target="12">
                    <mxGeometry relative="1" as="geometry"/>
                </mxCell>
                <mxCell id="13" value="has" style="rhombus;whiteSpace=wrap;html=1;fillColor=#f0a30a;strokeColor=#BD7000;strokeWidth=3;comic=0;sketch=1;fontSize=14;fontColor=#000000;" vertex="1" parent="1">
                    <mxGeometry x="543" y="88" width="80" height="80" as="geometry"/>
                </mxCell>
                <mxCell id="14" value="Type" style="ellipse;whiteSpace=wrap;html=1;fillColor=#f0a30a;strokeColor=#BD7000;strokeWidth=3;comic=0;sketch=1;fontSize=14;fontColor=#000000;" vertex="1" parent="1">
                    <mxGeometry x="53" y="14" width="120" height="80" as="geometry"/>
                </mxCell>
                <mxCell id="42" style="edgeStyle=none;html=1;exitX=1;exitY=0.5;exitDx=0;exitDy=0;entryX=0.008;entryY=0.413;entryDx=0;entryDy=0;entryPerimeter=0;fillColor=#f0a30a;strokeColor=#BD7000;strokeWidth=3;comic=0;sketch=1;fontSize=14;fontColor=#000000;" edge="1" parent="1" source="15" target="27">
                    <mxGeometry relative="1" as="geometry"/>
                </mxCell>
                <mxCell id="43" style="edgeStyle=none;html=1;exitX=1;exitY=1;exitDx=0;exitDy=0;fillColor=#f0a30a;strokeColor=#BD7000;strokeWidth=3;comic=0;sketch=1;fontSize=14;fontColor=#000000;" edge="1" parent="1" source="15" target="28">
                    <mxGeometry relative="1" as="geometry"/>
                </mxCell>
                <mxCell id="44" style="edgeStyle=none;html=1;exitX=0.5;exitY=1;exitDx=0;exitDy=0;fillColor=#f0a30a;strokeColor=#BD7000;strokeWidth=3;comic=0;sketch=1;fontSize=14;fontColor=#000000;" edge="1" parent="1" source="15" target="17">
                    <mxGeometry relative="1" as="geometry"/>
                </mxCell>
                <mxCell id="15" value="Report/Sighting" style="rounded=1;whiteSpace=wrap;html=1;fillColor=#f0a30a;strokeColor=#BD7000;strokeWidth=3;comic=0;sketch=1;fontSize=14;fontColor=#000000;" vertex="1" parent="1">
                    <mxGeometry x="503" y="285" width="120" height="60" as="geometry"/>
                </mxCell>
                <mxCell id="41" style="edgeStyle=none;html=1;exitX=1;exitY=1;exitDx=0;exitDy=0;fillColor=#f0a30a;strokeColor=#BD7000;strokeWidth=3;comic=0;sketch=1;fontSize=14;fontColor=#000000;" edge="1" parent="1" source="16" target="15">
                    <mxGeometry relative="1" as="geometry"/>
                </mxCell>
                <mxCell id="16" value="reported in" style="rhombus;whiteSpace=wrap;html=1;fillColor=#f0a30a;strokeColor=#BD7000;strokeWidth=3;comic=0;sketch=1;fontSize=14;fontColor=#000000;" vertex="1" parent="1">
                    <mxGeometry x="430" y="163" width="80" height="80" as="geometry"/>
                </mxCell>
                <mxCell id="17" value="type (first or most recent)" style="ellipse;whiteSpace=wrap;html=1;fillColor=#f0a30a;strokeColor=#BD7000;strokeWidth=3;comic=0;sketch=1;fontSize=14;fontColor=#000000;" vertex="1" parent="1">
                    <mxGeometry x="512" y="385" width="120" height="80" as="geometry"/>
                </mxCell>
                <mxCell id="18" value="Original Reporter" style="ellipse;whiteSpace=wrap;html=1;fillColor=#f0a30a;strokeColor=#BD7000;strokeWidth=3;comic=0;sketch=1;fontSize=14;fontColor=#000000;" vertex="1" parent="1">
                    <mxGeometry x="904" y="114" width="120" height="80" as="geometry"/>
                </mxCell>
                <mxCell id="19" value="References" style="ellipse;whiteSpace=wrap;html=1;fillColor=#f0a30a;strokeColor=#BD7000;strokeWidth=3;comic=0;sketch=1;fontSize=14;fontColor=#000000;" vertex="1" parent="1">
                    <mxGeometry x="824" y="-4" width="120" height="80" as="geometry"/>
                </mxCell>
                <mxCell id="20" value="GPS point" style="ellipse;whiteSpace=wrap;html=1;fillColor=#f0a30a;strokeColor=#BD7000;strokeWidth=3;comic=0;sketch=1;fontSize=14;fontColor=#000000;" vertex="1" parent="1">
                    <mxGeometry x="44" y="-96" width="120" height="80" as="geometry"/>
                </mxCell>
                <mxCell id="21" value="Size, LAD" style="ellipse;whiteSpace=wrap;html=1;fillColor=#f0a30a;strokeColor=#BD7000;strokeWidth=3;comic=0;sketch=1;fontSize=14;fontColor=#000000;" vertex="1" parent="1">
                    <mxGeometry x="549" y="-139" width="120" height="80" as="geometry"/>
                </mxCell>
                <mxCell id="22" value="Difficulty Level" style="ellipse;whiteSpace=wrap;html=1;fillColor=#f0a30a;strokeColor=#BD7000;strokeWidth=3;comic=0;sketch=1;fontSize=14;fontColor=#000000;" vertex="1" parent="1">
                    <mxGeometry x="-212" y="270" width="120" height="80" as="geometry"/>
                </mxCell>
                <mxCell id="23" value="located on" style="rhombus;whiteSpace=wrap;html=1;fillColor=#f0a30a;strokeColor=#BD7000;strokeWidth=3;comic=0;sketch=1;fontSize=14;fontColor=#000000;" vertex="1" parent="1">
                    <mxGeometry x="49" y="270" width="80" height="80" as="geometry"/>
                </mxCell>
                <mxCell id="24" value="Name" style="ellipse;whiteSpace=wrap;html=1;fillColor=#f0a30a;strokeColor=#BD7000;strokeWidth=3;comic=0;sketch=1;fontSize=14;fontColor=#000000;" vertex="1" parent="1">
                    <mxGeometry x="32" y="449" width="120" height="80" as="geometry"/>
                </mxCell>
                <mxCell id="25" value="Location" style="ellipse;whiteSpace=wrap;html=1;fillColor=#f0a30a;strokeColor=#BD7000;strokeWidth=3;comic=0;sketch=1;fontSize=14;fontColor=#000000;" vertex="1" parent="1">
                    <mxGeometry x="232" y="436" width="120" height="80" as="geometry"/>
                </mxCell>
                <mxCell id="26" value="Picture" style="ellipse;whiteSpace=wrap;html=1;fillColor=#f0a30a;strokeColor=#BD7000;strokeWidth=3;comic=0;sketch=1;fontSize=14;fontColor=#000000;" vertex="1" parent="1">
                    <mxGeometry x="281" y="-193" width="120" height="80" as="geometry"/>
                </mxCell>
                <mxCell id="27" value="date" style="ellipse;whiteSpace=wrap;html=1;fillColor=#f0a30a;strokeColor=#BD7000;strokeWidth=3;comic=0;sketch=1;fontSize=14;fontColor=#000000;" vertex="1" parent="1">
                    <mxGeometry x="669" y="289" width="120" height="80" as="geometry"/>
                </mxCell>
                <mxCell id="28" value="author/adventurer" style="ellipse;whiteSpace=wrap;html=1;fillColor=#f0a30a;strokeColor=#BD7000;strokeWidth=3;comic=0;sketch=1;fontSize=14;fontColor=#000000;" vertex="1" parent="1">
                    <mxGeometry x="665" y="393" width="120" height="80" as="geometry"/>
                </mxCell>
            </root>
        </mxGraphModel>
    </diagram>
</mxfile>